<svg width="106" height="106" viewBox="0 0 106 106" fill="none" xmlns="http://www.w3.org/2000/svg">
<path d="M33.2584 17.7141C27.9228 19.4214 22.5518 21.1288 21.2889 21.5201L19.0303 22.2494V37.9359C19.0303 47.3265 19.1014 54.4049 19.2081 55.5788C19.9907 63.7957 23.5478 71.5856 29.488 78.0595C30.8397 79.5356 52.2886 98.2279 52.8935 98.4589C53.1423 98.548 71.9947 82.4701 75.0894 79.5178C80.4604 74.4135 84.6578 66.9437 86.1518 59.794C86.9343 56.0235 86.9877 54.6184 86.9343 37.9003L86.8809 22.1782L74.8047 18.3721C68.1708 16.2912 62.7108 14.6016 62.6751 14.6194C62.6575 14.655 63.6535 16.6292 64.9162 19.0302L67.2104 23.3876L70.6429 24.4902C72.5283 25.0949 75.3739 26.002 76.9745 26.5L79.8736 27.4069L79.8024 41.8486C79.749 55.721 79.7314 56.3615 79.3756 57.9799C78.0239 64.0802 75.2317 69.2557 70.9455 73.6308C70.1272 74.4667 65.9656 78.1483 61.7148 81.7943C57.4642 85.458 53.7648 88.6416 53.4981 88.8905L53.0357 89.3175L44.8722 82.2922C34.8947 73.6842 33.4007 72.2258 31.0176 68.5621C29.1857 65.7342 27.834 62.6928 27.0159 59.5449C26.2156 56.3437 26.1444 55.152 26.1444 40.8882V27.4247L28.6877 26.6244C30.0748 26.1799 32.9205 25.2727 35.0015 24.6147C37.0645 23.9566 38.7719 23.352 38.7719 23.2986C38.7719 23.2454 39.7679 21.2888 40.995 18.959C42.2222 16.6114 43.2182 14.6728 43.2182 14.6372C43.2182 14.5305 43.0047 14.6016 33.2584 17.7141Z" fill="white"/>
<path d="M52.5381 15.153C52.378 15.4731 47.8962 24.0279 42.5962 34.1477L32.9567 52.5554L33.099 54.0494C33.4191 57.1083 34.5573 60.3454 36.407 63.2799C37.0651 64.3469 37.2607 64.5426 37.4386 64.3469C37.5453 64.2224 41.0668 57.5707 45.264 49.5675C49.4435 41.5819 52.9116 35.0368 52.9829 35.0368C53.0361 35.0368 56.5576 41.5107 60.7904 49.4074C65.0234 57.304 68.5626 63.9023 68.6694 64.0802C68.8473 64.3825 68.8827 64.3647 69.1674 63.9914C70.9993 61.5902 72.511 57.6241 72.9378 54.1204L73.1513 52.3419L63.0493 33.5074C57.5002 23.1563 52.9295 14.6372 52.8938 14.6195C52.876 14.5839 52.716 14.8151 52.5381 15.153Z" fill="white"/>
<path d="M48.0201 60.4523L43.1293 70.2164L45.8859 72.6175C47.3977 73.9336 49.6207 75.8365 50.8124 76.8325L53 78.6466L53.4802 78.2552C53.7647 78.042 55.9523 76.1388 58.3534 74.0224L62.7463 70.1808L57.8732 60.4345C55.1876 55.0813 52.9822 50.6882 52.9466 50.6882C52.929 50.6882 50.7057 55.0813 48.0201 60.4523Z" fill="white"/>
</svg>
