<svg width="86" height="86" viewBox="0 0 86 86" fill="none" xmlns="http://www.w3.org/2000/svg">
<path d="M43 53.625C43 59.493 38.243 64.25 32.375 64.25C26.507 64.25 21.75 59.493 21.75 53.625C21.75 47.757 26.507 43 32.375 43C38.243 43 43 47.757 43 53.625Z" fill="white"/>
<path d="M64.25 53.625C64.25 59.493 59.493 64.25 53.625 64.25C47.757 64.25 43 59.493 43 53.625C43 47.757 47.757 43 53.625 43C59.493 43 64.25 47.757 64.25 53.625Z" fill="white"/>
<path d="M64.25 32.375C64.25 38.243 59.493 43 53.625 43C47.757 43 43 38.243 43 32.375C43 26.507 47.757 21.75 53.625 21.75C59.493 21.75 64.25 26.507 64.25 32.375Z" fill="white"/>
<path d="M43 32.375C43 38.243 38.243 43 32.375 43C26.507 43 21.75 38.243 21.75 32.375C21.75 26.507 26.507 21.75 32.375 21.75C38.243 21.75 43 26.507 43 32.375Z" fill="white"/>
<path d="M84 43C84 65.6437 65.6437 84 43 84C20.3563 84 2 65.6437 2 43C2 20.3563 20.3563 2 43 2C65.6437 2 84 20.3563 84 43Z" stroke="white" stroke-width="3"/>
</svg>
