<svg width="96" height="18" viewBox="0 0 96 18" fill="none" xmlns="http://www.w3.org/2000/svg">
<path d="M19.6735 5.25265C16.2224 5.25265 13.5258 7.87248 13.5258 11.3796C13.5258 14.8868 16.1542 17.4842 19.6735 17.4842C23.1928 17.4842 25.8669 14.842 25.8669 11.3572C25.8669 7.89489 23.2385 5.25265 19.6735 5.25265ZM19.6968 14.9567C17.7315 14.9567 16.2914 13.4303 16.2914 11.3805C16.2914 9.30742 17.7082 7.78193 19.6735 7.78193C21.6621 7.78193 23.1014 9.3307 23.1014 11.3805C23.1014 13.4303 21.6621 14.9567 19.6968 14.9567ZM26.6206 7.91817H28.3348V17.2574H31.0771V5.48032H26.6206V7.91817ZM6.62441 7.78106C8.06455 7.78106 9.20715 8.66929 9.64092 9.99039H12.5436C12.0176 7.1662 9.68664 5.25265 6.6477 5.25265C3.19657 5.25265 0.5 7.87248 0.5 11.3805C0.5 14.8885 3.12845 17.4851 6.6477 17.4851C9.61849 17.4851 11.9951 15.5715 12.5212 12.7241H9.64092C9.22958 14.0452 8.08695 14.9567 6.64685 14.9567C4.65826 14.9567 3.26469 13.4303 3.26469 11.3805C3.26556 9.30742 4.6367 7.78106 6.62441 7.78106ZM78.7255 10.2413L76.7145 9.94555C75.7549 9.80931 75.0692 9.49025 75.0692 8.73828C75.0692 7.91817 75.9609 7.50855 77.1717 7.50855C78.4972 7.50855 79.343 8.07772 79.5257 9.01163H82.1768C81.8793 6.64275 80.051 5.2535 77.2406 5.2535C74.3379 5.2535 72.4184 6.73418 72.4184 8.82968C72.4184 10.8338 73.6755 11.9962 76.2118 12.3601L78.2227 12.6559C79.206 12.7922 79.7543 13.1802 79.7543 13.9089C79.7543 14.8429 78.7947 15.23 77.4692 15.23C75.8461 15.23 74.9321 14.5695 74.795 13.5674H72.0984C72.3503 15.8682 74.1552 17.4851 77.4458 17.4851C80.44 17.4851 82.4276 16.1183 82.4276 13.7718C82.4276 11.6763 80.9884 10.5828 78.7255 10.2413ZM29.706 0.628723C28.7005 0.628723 27.9461 1.35741 27.9461 2.35946C27.9461 3.36151 28.6997 4.0902 29.706 4.0902C30.7115 4.0902 31.4661 3.36151 31.4661 2.35946C31.4661 1.35741 30.7115 0.628723 29.706 0.628723ZM69.9503 9.51265C69.9503 6.96182 68.3965 5.2535 65.1056 5.2535C61.9976 5.2535 60.2608 6.82558 59.9177 9.24015H62.6375C62.7746 8.30623 63.5059 7.53183 65.06 7.53183C66.4544 7.53183 67.1399 8.14668 67.1399 8.89868C67.1399 9.87831 65.8825 10.1284 64.3287 10.2879C62.2262 10.5156 59.621 11.2442 59.621 13.9779C59.621 16.0967 61.1982 17.4627 63.7122 17.4627C65.6773 17.4627 66.9113 16.6426 67.5289 15.3439C67.6203 16.5055 68.4887 17.2574 69.7003 17.2574H71.3V14.8204H69.9511V9.51265H69.9503ZM67.2536 12.474C67.2536 14.046 65.8825 15.2076 64.2138 15.2076C63.1853 15.2076 62.3169 14.7747 62.3169 13.8641C62.3169 12.7025 63.7111 12.3834 64.991 12.2472C66.2251 12.1334 66.9105 11.86 67.2536 11.3357V12.474ZM52.6964 5.25265C51.1648 5.25265 49.8852 5.89079 48.9711 6.96097V0.514893H46.2289V17.2574H48.9253V15.7087C49.8393 16.8245 51.1425 17.4851 52.6964 17.4851C55.987 17.4851 58.4784 14.8885 58.4784 11.3805C58.4784 7.87248 55.9414 5.25265 52.6964 5.25265ZM52.2851 14.9567C50.3198 14.9567 48.8797 13.4303 48.8797 11.3805C48.8797 9.3307 50.3423 7.78193 52.3074 7.78193C54.2961 7.78193 55.6895 9.30829 55.6895 11.3805C55.6895 13.4303 54.2502 14.9567 52.2851 14.9567ZM39.6696 5.25265C37.8872 5.25265 36.7213 5.98134 36.0359 7.00666V5.48032H33.3159V17.2566H36.0581V10.8562C36.0581 9.05647 37.2007 7.78106 38.8919 7.78106C40.4691 7.78106 41.4512 8.89695 41.4512 10.5147V17.2574H44.1935V10.3103C44.1946 7.34816 42.6638 5.25265 39.6696 5.25265ZM95.5 10.9933C95.5 7.62238 93.0319 5.2535 89.7179 5.2535C86.1987 5.2535 83.6161 7.89576 83.6161 11.3805C83.6161 15.0481 86.3814 17.4851 89.7638 17.4851C92.6206 17.4851 94.8602 15.7992 95.4311 13.4079H92.574C92.1627 14.4556 91.1572 15.0481 89.8086 15.0481C88.0485 15.0481 86.723 13.9546 86.4262 12.0411H95.4992V10.9933H95.5ZM86.5867 10.0818C87.0215 8.44162 88.2553 7.64482 89.6723 7.64482C91.2262 7.64482 92.4146 8.53302 92.6888 10.0818H86.5867Z" fill="white"/>
</svg>
