<svg width="286" height="85" viewBox="0 0 286 85" fill="none" xmlns="http://www.w3.org/2000/svg">
<circle cx="28.1299" cy="15.6504" r="6.40535" transform="rotate(-50.6424 28.1299 15.6504)" fill="#C4C4C4"/>
<circle cx="28.1299" cy="15.6504" r="6.40535" transform="rotate(-50.6424 28.1299 15.6504)" fill="url(#paint0_radial_865_840)"/>
<circle cx="40.6267" cy="36.1987" r="6.13179" transform="rotate(-50.6424 40.6267 36.1987)" fill="#C4C4C4"/>
<circle cx="40.6267" cy="36.1987" r="6.13179" transform="rotate(-50.6424 40.6267 36.1987)" fill="url(#paint1_radial_865_840)"/>
<circle cx="53.7356" cy="31.5945" r="10.4666" fill="#C4C4C4"/>
<circle cx="53.7356" cy="31.5945" r="10.4666" fill="url(#paint2_radial_865_840)"/>
<path d="M1 72.6558V29.9844M1 72.6558L50.1124 83.5249M1 72.6558L19.9203 44.074M1 29.9844L19.9203 1.40256L69.0327 12.2717V55.3457L50.1124 83.5249M1 29.9844L50.1124 40.8535L69.0327 12.6743M50.1124 83.5249V40.4509M19.9203 44.074L69.0327 54.9431M19.9203 44.074V1" stroke="white" stroke-width="2"/>
<circle cx="14.7174" cy="52.9607" r="7.17253" transform="rotate(-50.6424 14.7174 52.9607)" fill="#C4C4C4"/>
<circle cx="14.7174" cy="52.9607" r="7.17253" transform="rotate(-50.6424 14.7174 52.9607)" fill="url(#paint3_radial_865_840)"/>
<circle cx="36.8279" cy="62.9944" r="4.0256" fill="#C4C4C4"/>
<circle cx="36.8279" cy="62.9944" r="4.0256" fill="url(#paint4_radial_865_840)"/>
<path d="M88.835 54.2925C86.2933 54.2925 84.2204 53.4383 82.6162 51.73C81.0225 50.0216 80.2256 47.8446 80.2256 45.1987V39.9175C80.2256 37.2716 81.0225 35.0946 82.6162 33.3862C84.2204 31.6779 86.2933 30.8237 88.835 30.8237C91.3558 30.8237 93.4131 31.6831 95.0068 33.4019C96.611 35.1102 97.4131 37.2821 97.4131 39.9175V45.1987C97.4131 47.8341 96.611 50.0112 95.0068 51.73C93.4131 53.4383 91.3558 54.2925 88.835 54.2925ZM88.835 49.5112C89.96 49.5112 90.8662 49.1258 91.5537 48.355C92.2412 47.5841 92.585 46.5321 92.585 45.1987V42.4175L85.1943 46.5737C85.4339 47.5216 85.8662 48.2508 86.4912 48.7612C87.1266 49.2612 87.9079 49.5112 88.835 49.5112ZM85.0693 39.9175V42.6987L92.4287 38.5425C92.1891 37.5946 91.7516 36.8654 91.1162 36.355C90.4912 35.8446 89.7308 35.5894 88.835 35.5894C87.6891 35.5894 86.7725 35.9748 86.085 36.7456C85.4079 37.5164 85.0693 38.5737 85.0693 39.9175ZM103.976 53.9331H98.0381L106.538 42.4487L98.5381 31.2144H104.429L109.585 38.5112L114.741 31.2144H120.616L112.663 42.4487L121.132 53.9331H115.21L109.585 46.4175L103.976 53.9331ZM122.835 60.1362V37.9331H127.663V38.9175C128.674 38.0216 129.934 37.5737 131.444 37.5737C132.976 37.5737 134.345 37.9591 135.554 38.73C136.772 39.5008 137.705 40.5216 138.351 41.7925C138.996 43.0529 139.319 44.4331 139.319 45.9331C139.319 47.4331 138.996 48.8185 138.351 50.0894C137.705 51.3498 136.772 52.3654 135.554 53.1362C134.345 53.9071 132.976 54.2925 131.444 54.2925C129.924 54.2925 128.663 53.8289 127.663 52.9019V60.1362H122.835ZM130.71 49.9019C131.772 49.9019 132.637 49.5164 133.304 48.7456C133.981 47.9748 134.319 47.0373 134.319 45.9331C134.319 44.8289 133.981 43.8914 133.304 43.1206C132.637 42.3498 131.772 41.9644 130.71 41.9644C129.46 41.9644 128.444 42.4644 127.663 43.4644V48.3706C128.434 49.3914 129.45 49.9019 130.71 49.9019ZM142.366 53.9331V37.9331H147.194V39.73C147.455 39.1571 147.913 38.6831 148.569 38.3081C149.226 37.9331 149.955 37.7456 150.757 37.7456C151.444 37.7456 152.09 37.8498 152.694 38.0581L151.96 42.5737C151.793 42.4487 151.345 42.3862 150.616 42.3862C149.95 42.3862 149.304 42.5008 148.679 42.73C148.054 42.9487 147.559 43.3133 147.194 43.8237V53.9331H142.366ZM166.085 53.1987C164.804 53.9279 163.403 54.2925 161.882 54.2925C160.361 54.2925 158.955 53.9279 157.663 53.1987C156.382 52.4591 155.361 51.4487 154.601 50.1675C153.84 48.8862 153.46 47.4748 153.46 45.9331C153.46 44.3914 153.84 42.98 154.601 41.6987C155.361 40.4175 156.382 39.4123 157.663 38.6831C158.955 37.9435 160.361 37.5737 161.882 37.5737C163.403 37.5737 164.804 37.9435 166.085 38.6831C167.377 39.4123 168.403 40.4175 169.163 41.6987C169.924 42.98 170.304 44.3914 170.304 45.9331C170.304 47.4748 169.924 48.8862 169.163 50.1675C168.403 51.4487 167.377 52.4591 166.085 53.1987ZM159.335 48.7144C160.002 49.4227 160.851 49.7769 161.882 49.7769C162.913 49.7769 163.762 49.4227 164.429 48.7144C165.095 47.9956 165.429 47.0685 165.429 45.9331C165.429 44.7977 165.095 43.8758 164.429 43.1675C163.762 42.4487 162.913 42.0894 161.882 42.0894C160.851 42.0894 160.002 42.4487 159.335 43.1675C158.668 43.8758 158.335 44.7977 158.335 45.9331C158.335 47.0685 158.668 47.9956 159.335 48.7144ZM180.819 54.2925C179.267 54.2925 177.84 53.9383 176.538 53.23C175.246 52.5216 174.22 51.5269 173.46 50.2456C172.7 48.9539 172.319 47.5164 172.319 45.9331C172.319 44.3498 172.7 42.9175 173.46 41.6362C174.22 40.3446 175.246 39.3446 176.538 38.6362C177.84 37.9279 179.267 37.5737 180.819 37.5737C182.455 37.5737 183.97 38.006 185.366 38.8706C186.762 39.7248 187.799 40.8498 188.476 42.2456L184.241 44.4956C183.918 43.7769 183.46 43.1987 182.866 42.7612C182.283 42.3133 181.601 42.0894 180.819 42.0894C179.799 42.0894 178.934 42.4539 178.226 43.1831C177.528 43.9019 177.179 44.8185 177.179 45.9331C177.179 47.0477 177.528 47.9696 178.226 48.6987C178.934 49.4175 179.799 49.7769 180.819 49.7769C181.601 49.7769 182.283 49.5581 182.866 49.1206C183.46 48.6727 183.918 48.0894 184.241 47.3706L188.476 49.6206C187.799 51.0164 186.762 52.1466 185.366 53.0112C183.97 53.8654 182.455 54.2925 180.819 54.2925ZM198.601 54.2925C197.028 54.2925 195.601 53.9591 194.319 53.2925C193.038 52.6258 192.012 51.6519 191.241 50.3706C190.481 49.0894 190.101 47.6102 190.101 45.9331C190.101 43.5581 190.897 41.5737 192.491 39.98C194.085 38.3758 196.09 37.5737 198.507 37.5737C199.58 37.5737 200.59 37.7404 201.538 38.0737C202.486 38.4071 203.33 38.8914 204.069 39.5269C204.809 40.1623 205.392 40.9852 205.819 41.9956C206.257 42.9956 206.476 44.1258 206.476 45.3862C206.476 46.0112 206.444 46.5789 206.382 47.0894H194.772C194.908 47.9956 195.345 48.6935 196.085 49.1831C196.825 49.6623 197.684 49.9019 198.663 49.9019C199.549 49.9019 200.33 49.7248 201.007 49.3706C201.694 49.0164 202.205 48.5841 202.538 48.0737L206.132 50.7612C205.361 51.855 204.325 52.7196 203.022 53.355C201.72 53.98 200.246 54.2925 198.601 54.2925ZM194.897 43.9175H201.679C201.481 43.1154 201.075 42.5164 200.46 42.1206C199.845 41.7144 199.153 41.5112 198.382 41.5112C197.58 41.5112 196.845 41.7091 196.179 42.105C195.522 42.5008 195.095 43.105 194.897 43.9175ZM215.022 54.2925C212.064 54.2925 209.845 53.3289 208.366 51.4019L211.569 48.4956C212.33 49.5998 213.481 50.1519 215.022 50.1519C215.429 50.1519 215.772 50.0789 216.054 49.9331C216.345 49.7873 216.491 49.5633 216.491 49.2612C216.491 48.9696 216.366 48.7404 216.116 48.5737C215.866 48.3966 215.345 48.2091 214.554 48.0112L213.491 47.7612C211.97 47.3966 210.819 46.756 210.038 45.8394C209.257 44.9227 208.892 43.8133 208.944 42.5112C208.986 41.0321 209.575 39.8394 210.71 38.9331C211.856 38.0269 213.314 37.5737 215.085 37.5737C217.564 37.5737 219.444 38.4591 220.726 40.23L217.585 42.8237C216.908 41.9696 216.064 41.5425 215.054 41.5425C214.71 41.5425 214.403 41.6154 214.132 41.7612C213.871 41.8966 213.741 42.105 213.741 42.3862C213.741 42.5321 213.762 42.6623 213.804 42.7769C213.845 42.881 213.97 43.006 214.179 43.1519C214.397 43.2873 214.7 43.4123 215.085 43.5269L216.569 43.9175C218.101 44.3237 219.267 44.9279 220.069 45.73C220.871 46.5321 221.272 47.6154 221.272 48.98C221.272 50.5008 220.668 51.7664 219.46 52.7769C218.262 53.7873 216.783 54.2925 215.022 54.2925ZM229.772 54.2925C226.814 54.2925 224.595 53.3289 223.116 51.4019L226.319 48.4956C227.08 49.5998 228.231 50.1519 229.772 50.1519C230.179 50.1519 230.522 50.0789 230.804 49.9331C231.095 49.7873 231.241 49.5633 231.241 49.2612C231.241 48.9696 231.116 48.7404 230.866 48.5737C230.616 48.3966 230.095 48.2091 229.304 48.0112L228.241 47.7612C226.72 47.3966 225.569 46.756 224.788 45.8394C224.007 44.9227 223.642 43.8133 223.694 42.5112C223.736 41.0321 224.325 39.8394 225.46 38.9331C226.606 38.0269 228.064 37.5737 229.835 37.5737C232.314 37.5737 234.194 38.4591 235.476 40.23L232.335 42.8237C231.658 41.9696 230.814 41.5425 229.804 41.5425C229.46 41.5425 229.153 41.6154 228.882 41.7612C228.621 41.8966 228.491 42.105 228.491 42.3862C228.491 42.5321 228.512 42.6623 228.554 42.7769C228.595 42.881 228.72 43.006 228.929 43.1519C229.147 43.2873 229.45 43.4123 229.835 43.5269L231.319 43.9175C232.851 44.3237 234.017 44.9279 234.819 45.73C235.621 46.5321 236.022 47.6154 236.022 48.98C236.022 50.5008 235.418 51.7664 234.21 52.7769C233.012 53.7873 231.533 54.2925 229.772 54.2925ZM241.429 36.4019C240.616 36.4019 239.908 36.105 239.304 35.5112C238.71 34.9175 238.413 34.2091 238.413 33.3862C238.413 32.5633 238.71 31.8602 239.304 31.2769C239.908 30.6831 240.616 30.3862 241.429 30.3862C242.272 30.3862 242.986 30.6779 243.569 31.2612C244.163 31.8446 244.46 32.5529 244.46 33.3862C244.46 34.2196 244.163 34.9331 243.569 35.5269C242.986 36.1102 242.272 36.4019 241.429 36.4019ZM239.022 53.9331V37.9331H243.851V53.9331H239.022ZM247.835 53.9331V37.9331H252.663V39.0894C253.746 38.0789 255.132 37.5737 256.819 37.5737C258.861 37.5737 260.455 38.23 261.601 39.5425C262.746 40.855 263.319 42.6102 263.319 44.8081V53.9331H258.491V45.6519C258.491 44.5164 258.262 43.6206 257.804 42.9644C257.356 42.2977 256.679 41.9644 255.772 41.9644C255.158 41.9644 254.569 42.0998 254.007 42.3706C253.455 42.6414 253.007 42.9956 252.663 43.4331V53.9331H247.835ZM274.257 60.4644C271.33 60.4644 268.991 59.7821 267.241 58.4175L269.772 54.7925C271.012 55.7508 272.486 56.23 274.194 56.23C275.194 56.23 276.064 55.9644 276.804 55.4331C277.554 54.9123 277.929 54.1466 277.929 53.1362V52.1987C276.939 53.1154 275.658 53.5737 274.085 53.5737C272.575 53.5737 271.21 53.2196 269.991 52.5112C268.772 51.8029 267.825 50.8394 267.147 49.6206C266.47 48.4019 266.132 47.0529 266.132 45.5737C266.132 43.3133 266.887 41.4175 268.397 39.8862C269.918 38.3446 271.814 37.5737 274.085 37.5737C275.637 37.5737 276.918 38.0216 277.929 38.9175V37.9331H282.757V53.0737C282.757 54.1987 282.585 55.1987 282.241 56.0737C281.908 56.9487 281.465 57.6571 280.913 58.1987C280.371 58.7404 279.72 59.1831 278.96 59.5269C278.2 59.881 277.434 60.1258 276.663 60.2612C275.903 60.3966 275.101 60.4644 274.257 60.4644ZM274.897 49.1987C276.147 49.1987 277.158 48.6883 277.929 47.6675V43.4644C277.147 42.4644 276.137 41.9644 274.897 41.9644C273.804 41.9644 272.897 42.2977 272.179 42.9644C271.47 43.631 271.116 44.5008 271.116 45.5737C271.116 46.6466 271.47 47.5216 272.179 48.1987C272.897 48.8654 273.804 49.1987 274.897 49.1987Z" fill="white"/>
<defs>
<radialGradient id="paint0_radial_865_840" cx="0" cy="0" r="1" gradientUnits="userSpaceOnUse" gradientTransform="translate(31.8721 11.7837) rotate(114.157) scale(10.7489 13.6418)">
<stop stop-color="#E9B652"/>
<stop offset="0.624704" stop-color="#E29735"/>
<stop offset="1" stop-color="#E45B62"/>
</radialGradient>
<radialGradient id="paint1_radial_865_840" cx="0" cy="0" r="1" gradientUnits="userSpaceOnUse" gradientTransform="translate(44.2092 32.4972) rotate(114.157) scale(10.2899 13.0592)">
<stop stop-color="#D7325B"/>
<stop offset="0.624704" stop-color="#E35861"/>
<stop offset="1" stop-color="#E68851"/>
</radialGradient>
<radialGradient id="paint2_radial_865_840" cx="0" cy="0" r="1" gradientUnits="userSpaceOnUse" gradientTransform="translate(59.8506 25.2763) rotate(114.157) scale(17.5641 22.2912)">
<stop stop-color="#EB5323"/>
<stop offset="0.624704" stop-color="#811C5E"/>
<stop offset="1" stop-color="#300947"/>
</radialGradient>
<radialGradient id="paint3_radial_865_840" cx="0" cy="0" r="1" gradientUnits="userSpaceOnUse" gradientTransform="translate(18.9079 48.6309) rotate(114.157) scale(12.0363 15.2757)">
<stop stop-color="#3AACB4"/>
<stop offset="0.624704" stop-color="#804889"/>
<stop offset="1" stop-color="#A22451"/>
</radialGradient>
<radialGradient id="paint4_radial_865_840" cx="0" cy="0" r="1" gradientUnits="userSpaceOnUse" gradientTransform="translate(39.1798 60.5643) rotate(114.157) scale(6.75543 8.57354)">
<stop stop-color="#EF8634"/>
<stop offset="0.624704" stop-color="#8E9128"/>
<stop offset="1" stop-color="#467D57"/>
</radialGradient>
</defs>
</svg>
