<svg width="80" height="80" viewBox="0 0 80 80" fill="none" xmlns="http://www.w3.org/2000/svg">
<rect width="80" height="80" rx="14" fill="#433F49"/>
<path d="M20.9253 53.8288V38.5694C20.9253 36.4625 22.6333 34.7546 24.7401 34.7546H55.2589C57.3658 34.7546 59.0737 36.4625 59.0737 38.5694V53.8288C59.0737 55.9356 57.3658 57.6438 55.2589 57.6438H24.7401C22.6333 57.6438 20.9253 55.9356 20.9253 53.8288Z" stroke="white" stroke-width="2.47917" stroke-linecap="round"/>
<path d="M34.3154 48.0686L35.7365 49.4897C36.5213 50.2744 37.7938 50.2744 38.5788 49.4897L45.6842 42.384" stroke="white" stroke-width="2.47917" stroke-linecap="round"/>
<path d="M24.7412 34.7543V32.8468C24.7412 30.7399 26.4492 29.032 28.556 29.032H51.4451C53.552 29.032 55.2599 30.7399 55.2599 32.8468V34.7543" stroke="white" stroke-width="2.47917" stroke-linecap="round"/>
<path d="M29.6523 28.7579V27.0332C29.6523 25.1283 31.1966 23.584 33.1016 23.584H46.8987C48.8037 23.584 50.3478 25.1283 50.3478 27.0332V28.7579" stroke="white" stroke-width="2.47917" stroke-linecap="round"/>
</svg>
