<svg width="80" height="35" viewBox="0 0 80 35" fill="none" xmlns="http://www.w3.org/2000/svg">
<path fill-rule="evenodd" clip-rule="evenodd" d="M77.6332 14.2425H56.7182V29.6608H77.6332V14.2425ZM54.3652 11.8905V32.0128H79.9863V11.8905H54.3652Z" fill="white"/>
<path fill-rule="evenodd" clip-rule="evenodd" d="M72.1431 11.3678V7.31721C72.1431 4.57498 69.9192 2.35196 67.1758 2.35196C64.4324 2.35196 62.2084 4.57498 62.2084 7.31721V11.3678H72.1431ZM67.1758 0C63.1329 0 59.8555 3.27603 59.8555 7.31721V13.7198H74.496V7.31721C74.496 3.27603 71.2186 0 67.1758 0Z" fill="white"/>
<path d="M69.5291 20.3837C69.5291 21.6826 68.4756 22.7356 67.1762 22.7356C65.8767 22.7356 64.8232 21.6826 64.8232 20.3837C64.8232 19.0847 65.8767 18.0317 67.1762 18.0317C68.4756 18.0317 69.5291 19.0847 69.5291 20.3837Z" fill="white"/>
<path fill-rule="evenodd" clip-rule="evenodd" d="M67.1759 18.8157C67.6091 18.8157 67.9602 19.1264 67.9602 19.5097V25.1776C67.9602 25.5609 67.6091 25.8716 67.1759 25.8716C66.7427 25.8716 66.3916 25.5609 66.3916 25.1776V19.5097C66.3916 19.1264 66.7427 18.8157 67.1759 18.8157Z" fill="white"/>
<path fill-rule="evenodd" clip-rule="evenodd" d="M13.4506 20.3837C14.9667 20.3837 16.1957 19.1551 16.1957 17.6397C16.1957 16.1243 14.9667 14.8957 13.4506 14.8957C11.9345 14.8957 10.7055 16.1243 10.7055 17.6397C10.7055 19.1551 11.9345 20.3837 13.4506 20.3837ZM13.4506 22.7356C16.2661 22.7356 18.5486 20.4541 18.5486 17.6397C18.5486 14.8253 16.2661 12.5438 13.4506 12.5438C10.635 12.5438 8.35254 14.8253 8.35254 17.6397C8.35254 20.4541 10.635 22.7356 13.4506 22.7356Z" fill="white"/>
<path fill-rule="evenodd" clip-rule="evenodd" d="M49.0419 17.2477L45.168 13.3754L46.8317 11.7122L52.3695 17.2477L46.8317 22.7832L45.168 21.1201L49.0419 17.2477Z" fill="white"/>
<path d="M15.8198 2.40829L14.1042 1.36891L12.3887 2.4083C9.73114 4.01843 6.77631 5.07693 3.70055 5.52062L0 6.05445L1.49823 19.6704C2.01809 24.3949 4.70675 28.609 8.7731 31.0727L14.1042 34.3027L19.4354 31.0727C23.3715 28.6879 26.0169 24.6629 26.6536 20.1224H24.2735C23.6566 23.8302 21.4517 27.1009 18.2157 29.0614L14.1042 31.5524L9.99271 29.0614C6.55197 26.9768 4.27695 23.4109 3.83707 19.4133L2.58754 8.0575L4.03664 7.84849C7.42519 7.35965 10.6805 6.19351 13.6083 4.41963L14.1042 4.11918L14.6001 4.41963C17.5279 6.19351 20.7833 7.35965 24.1718 7.84849L25.6209 8.0575L24.8973 14.6344H27.2643L28.2085 6.05445L24.5079 5.52062C21.4322 5.07693 18.4773 4.01843 15.8198 2.40829Z" fill="white"/>
<path fill-rule="evenodd" clip-rule="evenodd" d="M49.3333 18.5544H17.7646V16.2024H49.3333V18.5544Z" fill="white"/>
</svg>
