<svg width="80" height="80" viewBox="0 0 80 80" fill="none" xmlns="http://www.w3.org/2000/svg">
<rect width="80" height="80" rx="14" fill="#433F49"/>
<path fill-rule="evenodd" clip-rule="evenodd" d="M39.5 38.9188C38.6203 38.9188 37.9072 38.2057 37.9072 37.326V25.316C37.9072 24.4363 38.6203 23.7231 39.5 23.7231C40.3798 23.7231 41.0929 24.4363 41.0929 25.316V37.326C41.0929 38.2057 40.3798 38.9188 39.5 38.9188Z" fill="white"/>
<path d="M53.2387 27.7403C52.64 27.0958 51.632 27.0588 50.9876 27.6576C50.3431 28.2564 50.3062 29.2642 50.9049 29.9087L53.2387 27.7403ZM54.8259 32.7793L53.4041 33.4971L54.8259 32.7793ZM24.174 32.7793L25.596 33.4971L24.174 32.7793ZM28.605 29.3849C29.2332 28.769 29.2433 27.7605 28.6274 27.1323C28.0116 26.5041 27.0031 26.4941 26.3749 27.1099L28.605 29.3849ZM55.0642 40.5C55.0642 49.0959 48.096 56.0644 39.5 56.0644V59.25C49.8553 59.25 58.25 50.8554 58.25 40.5H55.0642ZM39.5 56.0644C30.9041 56.0644 23.9357 49.0959 23.9357 40.5H20.75C20.75 50.8554 29.1447 59.25 39.5 59.25V56.0644ZM50.9049 29.9087C51.8973 30.9768 52.7413 32.184 53.4041 33.4971L56.2479 32.0616C55.449 30.4787 54.4327 29.0253 53.2387 27.7403L50.9049 29.9087ZM53.4041 33.4971C54.4655 35.6003 55.0642 37.9779 55.0642 40.5H58.25C58.25 37.4679 57.5291 34.5997 56.2479 32.0616L53.4041 33.4971ZM23.9357 40.5C23.9357 37.9779 24.5344 35.6003 25.596 33.4971L22.752 32.0616C21.4709 34.5997 20.75 37.4679 20.75 40.5H23.9357ZM25.596 33.4971C26.3696 31.9644 27.3899 30.5761 28.605 29.3849L26.3749 27.1099C24.9131 28.543 23.6845 30.2142 22.752 32.0616L25.596 33.4971Z" fill="white"/>
</svg>
