<svg width="80" height="80" viewBox="0 0 80 80" fill="none" xmlns="http://www.w3.org/2000/svg">
<rect width="80" height="80" rx="14" fill="#433F49"/>
<rect width="80" height="80" rx="14" fill="url(#paint0_linear_1460_128)"/>
<path fill-rule="evenodd" clip-rule="evenodd" d="M27.8231 24C24.0548 24 21 27.0548 21 30.8231V48.2187C21 51.987 24.0548 55.0418 27.8231 55.0418H52.1769C55.9452 55.0418 59 51.987 59 48.2187V32.5625V30.8231C59 27.0548 55.9452 24 52.1769 24H27.8231ZM24.2086 30.8231C24.2086 28.8269 25.8269 27.2086 27.8231 27.2086H52.1769C54.1731 27.2086 55.7914 28.8269 55.7914 30.8231V32.5625V32.6978H50.4373C46.669 32.6978 43.6142 35.7527 43.6142 39.5209C43.6142 43.2892 46.669 46.344 50.4373 46.344H55.7914V48.2187C55.7914 50.2149 54.1731 51.8332 52.1769 51.8332H27.8231C25.8269 51.8332 24.2086 50.2149 24.2086 48.2187V30.8231ZM55.7914 43.1353V35.9065H50.4373C48.4412 35.9065 46.8229 37.5248 46.8229 39.5209C46.8229 41.517 48.4412 43.1353 50.4373 43.1353H55.7914Z" fill="white"/>
<defs>
<linearGradient id="paint0_linear_1460_128" x1="1.76101" y1="-0.290914" x2="75.9502" y2="4.55148" gradientUnits="userSpaceOnUse">
<stop stop-color="#E8B24F"/>
<stop offset="1" stop-color="#DD475E"/>
</linearGradient>
</defs>
</svg>
