<svg width="70" height="70" viewBox="0 0 70 70" fill="none" xmlns="http://www.w3.org/2000/svg">
<path fill-rule="evenodd" clip-rule="evenodd" d="M2.3837 11.9437C1.16386e-05 16.625 0 22.75 0 35C0 47.25 1.16386e-05 53.375 2.3837 58.0563C4.4837 62.1688 7.83078 65.5156 11.9442 67.6156C16.625 70 22.75 70 35 70C47.25 70 53.375 70 58.0558 67.6156C62.1692 65.5156 65.5163 62.1688 67.6163 58.0563C70 53.375 70 47.25 70 35C70 22.75 70 16.625 67.6163 11.9437C65.5163 7.83125 62.1692 4.48438 58.0558 2.38438C53.375 0 47.25 0 35 0C22.75 0 16.625 0 11.9442 2.38438C7.83078 4.48438 4.4837 7.83125 2.3837 11.9437ZM52.4668 18.8781C53.0803 18.8781 53.6587 19.1297 54.086 19.5563C54.5134 19.9938 54.7529 20.5844 54.7418 21.1859C54.6331 27.7047 54.3808 32.6922 53.9111 36.6406C53.4524 40.5891 52.7634 43.5203 51.7245 45.8938C51.0245 47.4797 50.1587 48.7922 49.1418 49.9078C47.775 51.3844 46.2111 52.4563 44.5053 53.4736C43.7758 53.9098 43.0168 54.3404 42.221 54.7923C40.5245 55.7563 38.6566 56.8162 36.5419 58.2313C35.7774 58.7453 34.7808 58.7453 34.0163 58.2313C31.8684 56.7997 29.9766 55.7266 28.2634 54.7549C27.884 54.5388 27.5118 54.3277 27.1471 54.1188C25.1447 52.9594 23.3413 51.8547 21.7663 50.2578C20.7163 49.2078 19.8081 47.9281 19.086 46.4078C18.1024 44.3734 17.4337 41.9125 16.9419 38.7297C16.2861 34.475 15.9582 28.9078 15.8384 21.1859C15.8274 20.5844 16.0558 19.9938 16.4832 19.5563C16.9087 19.1297 17.5 18.8781 18.1134 18.8781H19.0529C21.9524 18.8891 28.35 18.6047 33.8837 14.2953C34.7053 13.6609 35.8529 13.6609 36.6745 14.2953C42.2082 18.6047 48.6058 18.8891 51.5163 18.8781H52.4668ZM47.3808 44.4391C48.0918 42.9734 48.6832 40.95 49.1308 38.0406C49.6669 34.5625 49.9947 29.8375 50.1495 23.4063C46.7361 23.3078 40.8745 22.6516 35.2837 18.8891C29.6947 22.6406 23.8332 23.2969 20.4308 23.4063C20.5524 28.7219 20.7918 32.8563 21.175 36.1047C21.6134 39.8016 22.236 42.3063 23.0134 44.0672C23.5274 45.2375 24.0947 46.0797 24.7745 46.8234C25.6808 47.8188 26.8303 48.6391 28.3942 49.5797C29.0426 49.9689 29.7574 50.3738 30.5366 50.8147C31.9237 51.5998 33.5116 52.4987 35.2837 53.6266C37.0245 52.5171 38.5903 51.6274 39.9608 50.848C40.3734 50.6131 40.7695 50.3882 41.1471 50.1703C43.0721 49.0656 44.4942 48.1469 45.5553 47.075C46.2663 46.3422 46.8447 45.5438 47.3808 44.4391Z" fill="white"/>
</svg>
